<?xml version="1.0" encoding="UTF-8" standalone="no"?>
<svg
   xmlns:dc="http://purl.org/dc/elements/1.1/"
   xmlns:cc="http://creativecommons.org/ns#"
   xmlns:rdf="http://www.w3.org/1999/02/22-rdf-syntax-ns#"
   xmlns:svg="http://www.w3.org/2000/svg"
   xmlns="http://www.w3.org/2000/svg"
   xmlns:sodipodi="http://sodipodi.sourceforge.net/DTD/sodipodi-0.dtd"
   xmlns:inkscape="http://www.inkscape.org/namespaces/inkscape"
   version="1.1"
   viewBox="0 0 492.45013 188.64594"
   stroke-miterlimit="10"
   id="svg2073"
   sodipodi:docname="reality.svg"
   width="492.45013"
   height="188.64594"
   style="fill:none;stroke:none;stroke-linecap:square;stroke-miterlimit:10"
   inkscape:version="0.92.3 (2405546, 2018-03-11)">
  <metadata
     id="metadata2079">
    <rdf:RDF>
      <cc:Work
         rdf:about="">
        <dc:format>image/svg+xml</dc:format>
        <dc:type
           rdf:resource="http://purl.org/dc/dcmitype/StillImage" />
      </cc:Work>
    </rdf:RDF>
  </metadata>
  <defs
     id="defs2077">
    <clipPath
       clipPathUnits="userSpaceOnUse"
       id="clipPath2626">
      <rect
         style="opacity:1;fill:none;fill-opacity:1;stroke:#595959;stroke-width:2.7666142;stroke-miterlimit:4;stroke-dasharray:none;stroke-dashoffset:0;stroke-opacity:1"
         id="rect2628"
         width="492.45013"
         height="188.64594"
         x="430.86353"
         y="501.15222" />
    </clipPath>
  </defs>
  <sodipodi:namedview
     pagecolor="#ffffff"
     bordercolor="#666666"
     borderopacity="1"
     objecttolerance="10"
     gridtolerance="10"
     guidetolerance="10"
     inkscape:pageopacity="0"
     inkscape:pageshadow="2"
     inkscape:window-width="1920"
     inkscape:window-height="1029"
     id="namedview2075"
     showgrid="false"
     inkscape:zoom="1.8541911"
     inkscape:cx="205.56507"
     inkscape:cy="66.499951"
     inkscape:window-x="0"
     inkscape:window-y="25"
     inkscape:window-maximized="1"
     inkscape:current-layer="svg2073" />
  <clipPath
     id="g7fc23f480a_0_0.0">
    <path
       d="M 0,0 H 960 V 720 H 0 Z"
       id="path1912"
       inkscape:connector-curvature="0"
       style="clip-rule:nonzero" />
  </clipPath>
  <g
     clip-path="url(#clipPath2626)"
     id="g2071"
     transform="translate(-430.86353,-501.15222)">
    <path
       d="M 0,0 H 960 V 720 H 0 Z"
       id="path1915"
       inkscape:connector-curvature="0"
       style="fill:#ffffff;fill-rule:evenodd" />
    <path
       d="m 430.86353,501.15222 h 500 v 188.69293 h -500 z"
       id="path1917"
       inkscape:connector-curvature="0"
       style="fill:#ffffff;fill-rule:evenodd" />
    <path
       d="m 430.86353,501.15222 h 500 v 188.69293 h -500 z"
       id="path1919"
       inkscape:connector-curvature="0"
       style="fill-rule:evenodd;stroke:#ffffff;stroke-width:1;stroke-linecap:butt;stroke-linejoin:round" />
    <path
       d="m 472.5853,623.90814 h 443.811"
       id="path1921"
       inkscape:connector-curvature="0"
       style="fill:#000000;fill-opacity:0;fill-rule:evenodd" />
    <path
       d="m 472.5853,623.90814 h 425.811"
       id="path1923"
       inkscape:connector-curvature="0"
       style="fill-rule:evenodd;stroke:#000000;stroke-width:3;stroke-linecap:butt;stroke-linejoin:round" />
    <path
       d="m 898.3963,628.86334 13.61432,-4.9552 -13.61432,-4.9552 z"
       id="path1925"
       inkscape:connector-curvature="0"
       style="fill:#000000;fill-rule:evenodd;stroke:#000000;stroke-width:3;stroke-linecap:butt" />
    <path
       d="M 475.4672,630.3648 V 511.34121"
       id="path1927"
       inkscape:connector-curvature="0"
       style="fill:#000000;fill-opacity:0;fill-rule:evenodd" />
    <path
       d="M 475.4672,630.3648 V 511.34121"
       id="path1929"
       inkscape:connector-curvature="0"
       style="fill-rule:evenodd;stroke:#000000;stroke-width:1;stroke-linecap:butt;stroke-linejoin:round;stroke-dasharray:1, 3" />
    <path
       d="M 507.4672,630.3648 V 511.34121"
       id="path1931"
       inkscape:connector-curvature="0"
       style="fill:#000000;fill-opacity:0;fill-rule:evenodd" />
    <path
       d="M 507.4672,630.3648 V 511.34121"
       id="path1933"
       inkscape:connector-curvature="0"
       style="fill-rule:evenodd;stroke:#000000;stroke-width:1;stroke-linecap:butt;stroke-linejoin:round;stroke-dasharray:1, 3" />
    <path
       d="M 539.46716,630.3648 V 511.34121"
       id="path1935"
       inkscape:connector-curvature="0"
       style="fill:#000000;fill-opacity:0;fill-rule:evenodd" />
    <path
       d="M 539.46716,630.3648 V 511.34121"
       id="path1937"
       inkscape:connector-curvature="0"
       style="fill-rule:evenodd;stroke:#000000;stroke-width:1;stroke-linecap:butt;stroke-linejoin:round;stroke-dasharray:1, 3" />
    <path
       d="M 571.46716,630.3648 V 511.34121"
       id="path1939"
       inkscape:connector-curvature="0"
       style="fill:#000000;fill-opacity:0;fill-rule:evenodd" />
    <path
       d="M 571.46716,630.3648 V 511.34121"
       id="path1941"
       inkscape:connector-curvature="0"
       style="fill-rule:evenodd;stroke:#000000;stroke-width:1;stroke-linecap:butt;stroke-linejoin:round;stroke-dasharray:1, 3" />
    <path
       d="M 603.46716,630.3648 V 511.34121"
       id="path1943"
       inkscape:connector-curvature="0"
       style="fill:#000000;fill-opacity:0;fill-rule:evenodd" />
    <path
       d="M 603.46716,630.3648 V 511.34121"
       id="path1945"
       inkscape:connector-curvature="0"
       style="fill-rule:evenodd;stroke:#000000;stroke-width:1;stroke-linecap:butt;stroke-linejoin:round;stroke-dasharray:1, 3" />
    <path
       d="M 635.46716,630.3648 V 511.34121"
       id="path1947"
       inkscape:connector-curvature="0"
       style="fill:#000000;fill-opacity:0;fill-rule:evenodd" />
    <path
       d="M 635.46716,630.3648 V 511.34121"
       id="path1949"
       inkscape:connector-curvature="0"
       style="fill-rule:evenodd;stroke:#000000;stroke-width:1;stroke-linecap:butt;stroke-linejoin:round;stroke-dasharray:1, 3" />
    <path
       d="M 667.46716,630.3648 V 511.34121"
       id="path1951"
       inkscape:connector-curvature="0"
       style="fill:#000000;fill-opacity:0;fill-rule:evenodd" />
    <path
       d="M 667.46716,630.3648 V 511.34121"
       id="path1953"
       inkscape:connector-curvature="0"
       style="fill-rule:evenodd;stroke:#000000;stroke-width:1;stroke-linecap:butt;stroke-linejoin:round;stroke-dasharray:1, 3" />
    <path
       d="M 699.46716,630.3648 V 511.34121"
       id="path1955"
       inkscape:connector-curvature="0"
       style="fill:#000000;fill-opacity:0;fill-rule:evenodd" />
    <path
       d="M 699.46716,630.3648 V 511.34121"
       id="path1957"
       inkscape:connector-curvature="0"
       style="fill-rule:evenodd;stroke:#000000;stroke-width:1;stroke-linecap:butt;stroke-linejoin:round;stroke-dasharray:1, 3" />
    <path
       d="M 731.46716,630.3648 V 511.34121"
       id="path1959"
       inkscape:connector-curvature="0"
       style="fill:#000000;fill-opacity:0;fill-rule:evenodd" />
    <path
       d="M 731.46716,630.3648 V 511.34121"
       id="path1961"
       inkscape:connector-curvature="0"
       style="fill-rule:evenodd;stroke:#000000;stroke-width:1;stroke-linecap:butt;stroke-linejoin:round;stroke-dasharray:1, 3" />
    <path
       d="M 763.46716,630.3648 V 511.34121"
       id="path1963"
       inkscape:connector-curvature="0"
       style="fill:#000000;fill-opacity:0;fill-rule:evenodd" />
    <path
       d="M 763.46716,630.3648 V 511.34121"
       id="path1965"
       inkscape:connector-curvature="0"
       style="fill-rule:evenodd;stroke:#000000;stroke-width:1;stroke-linecap:butt;stroke-linejoin:round;stroke-dasharray:1, 3" />
    <path
       d="M 795.46716,630.3648 V 511.34121"
       id="path1967"
       inkscape:connector-curvature="0"
       style="fill:#000000;fill-opacity:0;fill-rule:evenodd" />
    <path
       d="M 795.46716,630.3648 V 511.34121"
       id="path1969"
       inkscape:connector-curvature="0"
       style="fill-rule:evenodd;stroke:#000000;stroke-width:1;stroke-linecap:butt;stroke-linejoin:round;stroke-dasharray:1, 3" />
    <path
       d="M 827.46716,630.3648 V 511.34121"
       id="path1971"
       inkscape:connector-curvature="0"
       style="fill:#000000;fill-opacity:0;fill-rule:evenodd" />
    <path
       d="M 827.46716,630.3648 V 511.34121"
       id="path1973"
       inkscape:connector-curvature="0"
       style="fill-rule:evenodd;stroke:#000000;stroke-width:1;stroke-linecap:butt;stroke-linejoin:round;stroke-dasharray:1, 3" />
    <path
       d="m 507.46698,563.32544 h 31.93701 v 9.85828 h -31.93701 z"
       id="path1975"
       inkscape:connector-curvature="0"
       style="fill:#01407a;fill-rule:evenodd" />
    <path
       d="m 507.46698,563.32544 h 31.93701 v 9.85828 h -31.93701 z"
       id="path1977"
       inkscape:connector-curvature="0"
       style="fill-rule:evenodd;stroke:#000000;stroke-width:1;stroke-linecap:butt;stroke-linejoin:round" />
    <path
       d="m 475.53003,525.42255 h 31.93701 v 9.85828 h -31.93701 z"
       id="path1979"
       inkscape:connector-curvature="0"
       style="fill:#01407a;fill-rule:evenodd" />
    <path
       d="m 475.53003,525.42255 h 31.93701 v 9.85828 h -31.93701 z"
       id="path1981"
       inkscape:connector-curvature="0"
       style="fill-rule:evenodd;stroke:#000000;stroke-width:1;stroke-linecap:butt;stroke-linejoin:round" />
    <path
       d="M 859.46716,630.3648 V 511.34121"
       id="path1983"
       inkscape:connector-curvature="0"
       style="fill:#000000;fill-opacity:0;fill-rule:evenodd" />
    <path
       d="M 859.46716,630.3648 V 511.34121"
       id="path1985"
       inkscape:connector-curvature="0"
       style="fill-rule:evenodd;stroke:#000000;stroke-width:1;stroke-linecap:butt;stroke-linejoin:round;stroke-dasharray:1, 3" />
    <path
       d="M 891.46716,630.3648 V 511.34121"
       id="path1987"
       inkscape:connector-curvature="0"
       style="fill:#000000;fill-opacity:0;fill-rule:evenodd" />
    <path
       d="M 891.46716,630.3648 V 511.34121"
       id="path1989"
       inkscape:connector-curvature="0"
       style="fill-rule:evenodd;stroke:#000000;stroke-width:1;stroke-linecap:butt;stroke-linejoin:round;stroke-dasharray:1, 3" />
    <path
       d="m 647.4147,650.7139 h 87.74805 V 689.832 H 647.4147 Z"
       id="path1991"
       inkscape:connector-curvature="0"
       style="fill:#000000;fill-opacity:0;fill-rule:evenodd" />
    <path
       d="m 661.2272,676.16516 0.23438,1.45313 q -0.6875,0.14062 -1.23438,0.14062 -0.89062,0 -1.39062,-0.28125 -0.48438,-0.28125 -0.6875,-0.73437 -0.20313,-0.46875 -0.20313,-1.9375 v -5.57813 h -1.20312 v -1.26562 h 1.20312 v -2.39063 l 1.625,-0.98437 v 3.375 h 1.65625 v 1.26562 h -1.65625 v 5.67188 q 0,0.6875 0.0781,0.89062 0.0937,0.20313 0.28125,0.32813 0.20312,0.10937 0.57812,0.10937 0.26563,0 0.71875,-0.0625 z m 1.60522,-10 v -1.89062 h 1.64063 v 1.89062 z m 0,11.46875 v -9.67187 h 1.64063 v 9.67187 z m 4.14478,0 v -9.67187 h 1.46875 v 1.35937 q 0.45313,-0.71875 1.20313,-1.14062 0.76562,-0.4375 1.71875,-0.4375 1.07812,0 1.76562,0.45312 0.6875,0.4375 0.96875,1.23438 1.15625,-1.6875 2.98438,-1.6875 1.45312,0 2.21875,0.79687 0.78125,0.79688 0.78125,2.45313 v 6.64062 h -1.64063 v -6.09375 q 0,-0.98437 -0.15625,-1.40625 -0.15625,-0.4375 -0.57812,-0.70312 -0.42188,-0.26563 -0.98438,-0.26563 -1.01562,0 -1.6875,0.6875 -0.67187,0.67188 -0.67187,2.15625 v 5.625 h -1.64063 v -6.28125 q 0,-1.09375 -0.40625,-1.64062 -0.40625,-0.54688 -1.3125,-0.54688 -0.6875,0 -1.28125,0.35938 -0.59375,0.35937 -0.85937,1.0625 -0.25,0.70312 -0.25,2.03125 v 5.01562 z m 22.16583,-3.10937 1.6875,0.20312 q -0.40625,1.48438 -1.48437,2.3125 -1.07813,0.8125 -2.76563,0.8125 -2.125,0 -3.375,-1.29687 -1.23437,-1.3125 -1.23437,-3.67188 0,-2.45312 1.25,-3.79687 1.26562,-1.34375 3.26562,-1.34375 1.9375,0 3.15625,1.32812 1.23438,1.3125 1.23438,3.70313 0,0.15625 0,0.4375 h -7.21875 q 0.0937,1.59375 0.90625,2.45312 0.8125,0.84375 2.01562,0.84375 0.90625,0 1.54688,-0.46875 0.64062,-0.48437 1.01562,-1.51562 z m -5.39062,-2.65625 h 5.40625 q -0.10938,-1.21875 -0.625,-1.82813 -0.78125,-0.95312 -2.03125,-0.95312 -1.125,0 -1.90625,0.76562 -0.76563,0.75 -0.84375,2.01563 z m 17.44964,9.6875 q -1.35937,-1.70313 -2.29687,-4 -0.9375,-2.29688 -0.9375,-4.76563 0,-2.15625 0.70312,-4.14062 0.82813,-2.3125 2.53125,-4.59375 h 1.17188 q -1.09375,1.89062 -1.45313,2.70312 -0.54687,1.25 -0.875,2.625 -0.39062,1.70313 -0.39062,3.42188 0,4.375 2.71875,8.75 z m 2.4314,-6.8125 1.625,-0.25 q 0.125,0.96875 0.75,1.5 0.625,0.51562 1.75,0.51562 1.125,0 1.67188,-0.45312 0.54687,-0.46875 0.54687,-1.09375 0,-0.54688 -0.48437,-0.875 -0.32813,-0.21875 -1.67188,-0.54688 -1.8125,-0.46875 -2.51562,-0.79687 -0.6875,-0.32813 -1.04688,-0.90625 -0.35937,-0.59375 -0.35937,-1.3125 0,-0.64063 0.29687,-1.1875 0.29688,-0.5625 0.8125,-0.92188 0.375,-0.28125 1.03125,-0.46875 0.67188,-0.20312 1.42188,-0.20312 1.14062,0 2,0.32812 0.85937,0.32813 1.26562,0.89063 0.42188,0.5625 0.57813,1.5 l -1.60938,0.21875 q -0.10937,-0.75 -0.64062,-1.17188 -0.51563,-0.42187 -1.46875,-0.42187 -1.14063,0 -1.625,0.375 -0.46875,0.375 -0.46875,0.875 0,0.3125 0.1875,0.57812 0.20312,0.26563 0.64062,0.4375 0.23438,0.0937 1.4375,0.42188 1.75,0.45312 2.4375,0.75 0.6875,0.29687 1.07813,0.85937 0.39062,0.5625 0.39062,1.40625 0,0.82813 -0.48437,1.54688 -0.46875,0.71875 -1.375,1.125 -0.90625,0.39062 -2.04688,0.39062 -1.875,0 -2.875,-0.78125 -0.98437,-0.78125 -1.25,-2.32812 z m 11.0625,6.8125 h -1.1875 q 2.73438,-4.375 2.73438,-8.75 0,-1.71875 -0.39063,-3.39063 -0.3125,-1.375 -0.875,-2.625 -0.35937,-0.82812 -1.46875,-2.73437 h 1.1875 q 1.70313,2.28125 2.53125,4.59375 0.6875,1.98437 0.6875,4.14062 0,2.46875 -0.9375,4.76563 -0.9375,2.29687 -2.28125,4 z"
       id="path1993"
       inkscape:connector-curvature="0"
       style="fill:#000000;fill-rule:nonzero" />
    <path
       d="m 461.41782,618.8147 h 485.1653 v 20.03149 h -485.1653 z"
       id="path1995"
       inkscape:connector-curvature="0"
       style="fill:#000000;fill-opacity:0;fill-rule:evenodd" />
    <path
       d="m 471.19907,641.701 q 0,-2.35937 0.48437,-3.79687 0.48438,-1.45313 1.4375,-2.23438 0.96875,-0.78125 2.42188,-0.78125 1.07812,0 1.89062,0.4375 0.8125,0.42188 1.32813,1.25 0.53125,0.8125 0.82812,1.98438 0.3125,1.15625 0.3125,3.14062 0,2.35938 -0.48437,3.8125 -0.48438,1.4375 -1.45313,2.23438 -0.95312,0.78125 -2.42187,0.78125 -1.92188,0 -3.03125,-1.39063 -1.3125,-1.67187 -1.3125,-5.4375 z m 1.67187,0 q 0,3.29688 0.76563,4.39063 0.78125,1.07812 1.90625,1.07812 1.14062,0 1.90625,-1.09375 0.76562,-1.09375 0.76562,-4.375 0,-3.29687 -0.76562,-4.375 -0.76563,-1.07812 -1.92188,-1.07812 -1.125,0 -1.79687,0.95312 -0.85938,1.21875 -0.85938,4.5 z"
       id="path1997"
       inkscape:connector-curvature="0"
       style="fill:#000000;fill-rule:nonzero" />
    <path
       d="m 509.59555,648.29474 h -1.64063 v -10.45312 q -0.59375,0.5625 -1.5625,1.14062 -0.95312,0.5625 -1.71875,0.84375 v -1.59375 q 1.375,-0.64062 2.40625,-1.5625 1.03125,-0.92187 1.45313,-1.78125 h 1.0625 z"
       id="path1999"
       inkscape:connector-curvature="0"
       style="fill:#000000;fill-rule:nonzero" />
    <path
       d="m 544.2576,646.7166 v 1.57812 h -8.82812 q -0.0156,-0.59375 0.1875,-1.14062 0.34375,-0.90625 1.07812,-1.78125 0.75,-0.875 2.15625,-2.01563 2.17188,-1.78125 2.9375,-2.82812 0.76563,-1.04688 0.76563,-1.96875 0,-0.98438 -0.70313,-1.64063 -0.6875,-0.67187 -1.8125,-0.67187 -1.1875,0 -1.90625,0.71875 -0.70312,0.70312 -0.70312,1.95312 l -1.6875,-0.17187 q 0.17187,-1.89063 1.29687,-2.875 1.14063,-0.98438 3.03125,-0.98438 1.92188,0 3.04688,1.0625 1.125,1.0625 1.125,2.64063 0,0.79687 -0.32813,1.57812 -0.32812,0.78125 -1.09375,1.64063 -0.75,0.84375 -2.53125,2.34375 -1.46875,1.23437 -1.89062,1.6875 -0.42188,0.4375 -0.6875,0.875 z"
       id="path2001"
       inkscape:connector-curvature="0"
       style="fill:#000000;fill-rule:nonzero" />
    <path
       d="m 567.87286,644.7635 1.64062,-0.21875 q 0.28125,1.40625 0.95313,2.01563 0.6875,0.60937 1.65625,0.60937 1.15625,0 1.95312,-0.79687 0.79688,-0.79688 0.79688,-1.98438 0,-1.125 -0.73438,-1.85937 -0.73437,-0.73438 -1.875,-0.73438 -0.46875,0 -1.15625,0.17188 l 0.1875,-1.4375 q 0.15625,0.0156 0.26563,0.0156 1.04687,0 1.875,-0.54687 0.84375,-0.54688 0.84375,-1.67188 0,-0.90625 -0.60938,-1.5 -0.60937,-0.59375 -1.57812,-0.59375 -0.95313,0 -1.59375,0.60938 -0.64063,0.59375 -0.8125,1.79687 l -1.64063,-0.29687 q 0.29688,-1.64063 1.35938,-2.54688 1.0625,-0.90625 2.65625,-0.90625 1.09375,0 2,0.46875 0.92187,0.46875 1.40625,1.28125 0.5,0.8125 0.5,1.71875 0,0.85938 -0.46875,1.57813 -0.46875,0.70312 -1.375,1.125 1.1875,0.28125 1.84375,1.14062 0.65625,0.85938 0.65625,2.15625 0,1.73438 -1.28125,2.95313 -1.26563,1.21875 -3.21875,1.21875 -1.76563,0 -2.92188,-1.04688 -1.15625,-1.04687 -1.32812,-2.71875 z"
       id="path2003"
       inkscape:connector-curvature="0"
       style="fill:#000000;fill-rule:nonzero" />
    <path
       d="m 605.3475,648.29474 v -3.20312 h -5.79688 v -1.5 l 6.09375,-8.65625 h 1.34375 v 8.65625 h 1.79688 v 1.5 h -1.79688 v 3.20312 z m 0,-4.70312 v -6.01563 l -4.1875,6.01563 z"
       id="path2005"
       inkscape:connector-curvature="0"
       style="fill:#000000;fill-rule:nonzero" />
    <path
       d="m 632.3221,644.79474 1.71875,-0.14062 q 0.1875,1.25 0.875,1.89062 0.70312,0.625 1.6875,0.625 1.1875,0 2,-0.89062 0.82812,-0.89063 0.82812,-2.35938 0,-1.40625 -0.79687,-2.21875 -0.78125,-0.8125 -2.0625,-0.8125 -0.78125,0 -1.42188,0.35938 -0.64062,0.35937 -1,0.9375 l -1.54687,-0.20313 1.29687,-6.85937 h 6.64063 v 1.5625 h -5.32813 l -0.71875,3.59375 q 1.20313,-0.84375 2.51563,-0.84375 1.75,0 2.95312,1.21875 1.20313,1.20312 1.20313,3.10937 0,1.8125 -1.04688,3.14063 -1.29687,1.625 -3.51562,1.625 -1.8125,0 -2.96875,-1.01563 -1.15625,-1.03125 -1.3125,-2.71875 z"
       id="path2007"
       inkscape:connector-curvature="0"
       style="fill:#000000;fill-rule:nonzero" />
    <path
       d="m 673.0467,638.2166 -1.625,0.125 q -0.21875,-0.96875 -0.625,-1.40625 -0.65625,-0.70313 -1.64063,-0.70313 -0.78125,0 -1.375,0.4375 -0.76562,0.5625 -1.21875,1.65625 -0.45312,1.07813 -0.46875,3.07813 0.59375,-0.89063 1.45313,-1.32813 0.85937,-0.4375 1.79687,-0.4375 1.64063,0 2.78125,1.20313 1.15625,1.20312 1.15625,3.10937 0,1.26563 -0.54687,2.34375 -0.53125,1.07813 -1.48438,1.65625 -0.9375,0.57813 -2.14062,0.57813 -2.0625,0 -3.35938,-1.5 -1.28125,-1.51563 -1.28125,-4.98438 0,-3.875 1.42188,-5.625 1.25,-1.53125 3.375,-1.53125 1.5625,0 2.5625,0.89063 1.01562,0.875 1.21875,2.4375 z m -6.6875,5.75 q 0,0.84375 0.35937,1.625 0.35938,0.76562 1,1.17187 0.64063,0.40625 1.35938,0.40625 1.03125,0 1.78125,-0.82812 0.75,-0.84375 0.75,-2.28125 0,-1.39063 -0.73438,-2.1875 -0.73437,-0.79688 -1.85937,-0.79688 -1.10938,0 -1.89063,0.79688 -0.76562,0.79687 -0.76562,2.09375 z"
       id="path2009"
       inkscape:connector-curvature="0"
       style="fill:#000000;fill-rule:nonzero" />
    <path
       d="m 696.8807,636.68536 v -1.57813 h 8.64063 v 1.28125 q -1.28125,1.35938 -2.53125,3.60938 -1.25,2.25 -1.9375,4.625 -0.48438,1.67187 -0.625,3.67187 h -1.6875 q 0.0312,-1.57812 0.625,-3.8125 0.59375,-2.23437 1.6875,-4.29687 1.10937,-2.07813 2.35937,-3.5 z"
       id="path2011"
       inkscape:connector-curvature="0"
       style="fill:#000000;fill-rule:nonzero" />
    <path
       d="m 731.51154,641.06036 q -1.01563,-0.375 -1.51563,-1.0625 -0.48437,-0.70313 -0.48437,-1.67188 0,-1.45312 1.04687,-2.4375 1.04688,-1 2.78125,-1 1.75,0 2.8125,1.01563 1.07813,1.01562 1.07813,2.46875 0,0.9375 -0.5,1.625 -0.48438,0.6875 -1.46875,1.0625 1.21875,0.39062 1.85937,1.28125 0.65625,0.89062 0.65625,2.14062 0,1.70313 -1.21875,2.875 -1.21875,1.17188 -3.1875,1.17188 -1.98437,0 -3.20312,-1.17188 -1.20313,-1.17187 -1.20313,-2.92187 0,-1.3125 0.65625,-2.1875 0.67188,-0.875 1.89063,-1.1875 z m -0.32813,-2.78125 q 0,0.9375 0.60938,1.54687 0.60937,0.59375 1.59375,0.59375 0.9375,0 1.54687,-0.59375 0.60938,-0.59375 0.60938,-1.45312 0,-0.90625 -0.625,-1.51563 -0.625,-0.625 -1.5625,-0.625 -0.9375,0 -1.5625,0.60938 -0.60938,0.59375 -0.60938,1.4375 z m -0.53125,6.15625 q 0,0.70312 0.32813,1.35937 0.34375,0.65625 1,1.01563 0.65625,0.35937 1.40625,0.35937 1.17187,0 1.9375,-0.75 0.76562,-0.75 0.76562,-1.92187 0,-1.1875 -0.79687,-1.95313 -0.78125,-0.78125 -1.95313,-0.78125 -1.15625,0 -1.92187,0.76563 -0.76563,0.76562 -0.76563,1.90625 z"
       id="path2013"
       inkscape:connector-curvature="0"
       style="fill:#000000;fill-rule:nonzero" />
    <path
       d="m 761.4549,645.201 1.57812,-0.14062 q 0.20313,1.10937 0.76563,1.60937 0.5625,0.5 1.45312,0.5 0.75,0 1.3125,-0.34375 0.57813,-0.34375 0.9375,-0.92187 0.375,-0.57813 0.60938,-1.5625 0.25,-0.98438 0.25,-2 0,-0.10938 0,-0.32813 -0.5,0.78125 -1.35938,1.26563 -0.84375,0.48437 -1.82812,0.48437 -1.67188,0 -2.8125,-1.20312 -1.14063,-1.20313 -1.14063,-3.17188 0,-2.03125 1.1875,-3.26562 1.20313,-1.23438 3,-1.23438 1.3125,0 2.39063,0.70313 1.07812,0.70312 1.64062,2 0.5625,1.29687 0.5625,3.75 0,2.5625 -0.5625,4.07812 -0.5625,1.51563 -1.65625,2.3125 -1.09375,0.79688 -2.57812,0.79688 -1.5625,0 -2.5625,-0.875 -0.98438,-0.875 -1.1875,-2.45313 z m 6.71875,-5.89062 q 0,-1.40625 -0.75,-2.23438 -0.75,-0.82812 -1.8125,-0.82812 -1.09375,0 -1.90625,0.89062 -0.8125,0.89063 -0.8125,2.3125 0,1.28125 0.76562,2.07813 0.78125,0.79687 1.90625,0.79687 1.14063,0 1.875,-0.79687 0.73438,-0.79688 0.73438,-2.21875 z"
       id="path2015"
       inkscape:connector-curvature="0"
       style="fill:#000000;fill-rule:nonzero" />
    <path
       d="m 793.69135,648.29474 h -1.64062 v -10.45312 q -0.59375,0.5625 -1.5625,1.14062 -0.95313,0.5625 -1.71875,0.84375 v -1.59375 q 1.375,-0.64062 2.40625,-1.5625 1.03125,-0.92187 1.45312,-1.78125 h 1.0625 z m 4.20386,-6.59375 q 0,-2.35937 0.48437,-3.79687 0.48438,-1.45313 1.4375,-2.23438 0.96875,-0.78125 2.42188,-0.78125 1.07812,0 1.89062,0.4375 0.8125,0.42188 1.32813,1.25 0.53125,0.8125 0.82812,1.98438 0.3125,1.15625 0.3125,3.14062 0,2.35938 -0.48437,3.8125 -0.48438,1.4375 -1.45313,2.23438 -0.95312,0.78125 -2.42187,0.78125 -1.92188,0 -3.03125,-1.39063 -1.3125,-1.67187 -1.3125,-5.4375 z m 1.67187,0 q 0,3.29688 0.76563,4.39063 0.78125,1.07812 1.90625,1.07812 1.14062,0 1.90625,-1.09375 0.76562,-1.09375 0.76562,-4.375 0,-3.29687 -0.76562,-4.375 -0.76563,-1.07812 -1.92188,-1.07812 -1.125,0 -1.79687,0.95312 -0.85938,1.21875 -0.85938,4.5 z m 25.24231,6.59375 h -1.64062 v -10.45312 q -0.59375,0.5625 -1.5625,1.14062 -0.95313,0.5625 -1.71875,0.84375 v -1.59375 q 1.375,-0.64062 2.40625,-1.5625 1.03125,-0.92187 1.45312,-1.78125 h 1.0625 z m 8.9903,0 h -1.64063 v -10.45312 q -0.59375,0.5625 -1.5625,1.14062 -0.95312,0.5625 -1.71875,0.84375 v -1.59375 q 1.375,-0.64062 2.40625,-1.5625 1.03125,-0.92187 1.45313,-1.78125 h 1.0625 z m 20.74231,0 h -1.64063 v -10.45312 q -0.59375,0.5625 -1.5625,1.14062 -0.95312,0.5625 -1.71875,0.84375 v -1.59375 q 1.375,-0.64062 2.40625,-1.5625 1.03125,-0.92187 1.45313,-1.78125 h 1.0625 z m 12.81323,-1.57812 v 1.57812 h -8.82813 q -0.0156,-0.59375 0.1875,-1.14062 0.34375,-0.90625 1.07813,-1.78125 0.75,-0.875 2.15625,-2.01563 2.17187,-1.78125 2.9375,-2.82812 0.76562,-1.04688 0.76562,-1.96875 0,-0.98438 -0.70312,-1.64063 -0.6875,-0.67187 -1.8125,-0.67187 -1.1875,0 -1.90625,0.71875 -0.70313,0.70312 -0.70313,1.95312 l -1.6875,-0.17187 q 0.17188,-1.89063 1.29688,-2.875 1.14062,-0.98438 3.03125,-0.98438 1.92187,0 3.04687,1.0625 1.125,1.0625 1.125,2.64063 0,0.79687 -0.32812,1.57812 -0.32813,0.78125 -1.09375,1.64063 -0.75,0.84375 -2.53125,2.34375 -1.46875,1.23437 -1.89063,1.6875 -0.42187,0.4375 -0.6875,0.875 z m 18.30481,1.57812 h -1.64063 v -10.45312 q -0.59375,0.5625 -1.5625,1.14062 -0.95312,0.5625 -1.71875,0.84375 v -1.59375 q 1.375,-0.64062 2.40625,-1.5625 1.03125,-0.92187 1.45313,-1.78125 h 1.0625 z m 4.20386,-3.53125 1.64062,-0.21875 q 0.28125,1.40625 0.95313,2.01563 0.6875,0.60937 1.65625,0.60937 1.15625,0 1.95312,-0.79687 0.79688,-0.79688 0.79688,-1.98438 0,-1.125 -0.73438,-1.85937 -0.73437,-0.73438 -1.875,-0.73438 -0.46875,0 -1.15625,0.17188 l 0.1875,-1.4375 q 0.15625,0.0156 0.26563,0.0156 1.04687,0 1.875,-0.54687 0.84375,-0.54688 0.84375,-1.67188 0,-0.90625 -0.60938,-1.5 -0.60937,-0.59375 -1.57812,-0.59375 -0.95313,0 -1.59375,0.60938 -0.64063,0.59375 -0.8125,1.79687 l -1.64063,-0.29687 q 0.29688,-1.64063 1.35938,-2.54688 1.0625,-0.90625 2.65625,-0.90625 1.09375,0 2,0.46875 0.92187,0.46875 1.40625,1.28125 0.5,0.8125 0.5,1.71875 0,0.85938 -0.46875,1.57813 -0.46875,0.70312 -1.375,1.125 1.1875,0.28125 1.84375,1.14062 0.65625,0.85938 0.65625,2.15625 0,1.73438 -1.28125,2.95313 -1.26563,1.21875 -3.21875,1.21875 -1.76563,0 -2.92188,-1.04688 -1.15625,-1.04687 -1.32812,-2.71875 z"
       id="path2017"
       inkscape:connector-curvature="0"
       style="fill:#000000;fill-rule:nonzero" />
    <path
       d="m 429.41733,511.33334 h 54.67715 v 95.68503 h -54.67715 z"
       id="path2019"
       inkscape:connector-curvature="0"
       style="fill:#000000;fill-opacity:0;fill-rule:evenodd" />
    <path
       d="m 443.26108,538.25336 v -11.78125 h -4.40625 v -1.57812 h 10.57812 v 1.57812 h -4.40625 v 11.78125 z m 13.50534,0 h -1.64062 v -10.45312 q -0.59375,0.5625 -1.5625,1.14062 -0.95313,0.5625 -1.71875,0.84375 v -1.59375 q 1.375,-0.64062 2.40625,-1.5625 1.03125,-0.92187 1.45312,-1.78125 h 1.0625 z"
       id="path2021"
       inkscape:connector-curvature="0"
       style="fill:#000000;fill-rule:nonzero" />
    <path
       d="m 443.26108,572.25336 v -11.78125 h -4.40625 v -1.57812 h 10.57812 v 1.57812 h -4.40625 v 11.78125 z m 15.94284,-1.57812 v 1.57812 h -8.82812 q -0.0156,-0.59375 0.1875,-1.14062 0.34375,-0.90625 1.07812,-1.78125 0.75,-0.875 2.15625,-2.01563 2.17188,-1.78125 2.9375,-2.82812 0.76563,-1.04688 0.76563,-1.96875 0,-0.98438 -0.70313,-1.64063 -0.6875,-0.67187 -1.8125,-0.67187 -1.1875,0 -1.90625,0.71875 -0.70312,0.70312 -0.70312,1.95312 l -1.6875,-0.17187 q 0.17187,-1.89063 1.29687,-2.875 1.14063,-0.98438 3.03125,-0.98438 1.92188,0 3.04688,1.0625 1.125,1.0625 1.125,2.64063 0,0.79687 -0.32813,1.57812 -0.32812,0.78125 -1.09375,1.64063 -0.75,0.84375 -2.53125,2.34375 -1.46875,1.23437 -1.89062,1.6875 -0.42188,0.4375 -0.6875,0.875 z"
       id="path2023"
       inkscape:connector-curvature="0"
       style="fill:#000000;fill-rule:nonzero" />
    <path
       d="m 443.26108,606.25336 v -11.78125 h -4.40625 v -1.57812 h 10.57812 v 1.57812 h -4.40625 v 11.78125 z m 7.33347,-3.53125 1.64062,-0.21875 q 0.28125,1.40625 0.95313,2.01563 0.6875,0.60937 1.65625,0.60937 1.15625,0 1.95312,-0.79687 0.79688,-0.79688 0.79688,-1.98438 0,-1.125 -0.73438,-1.85937 -0.73437,-0.73438 -1.875,-0.73438 -0.46875,0 -1.15625,0.17188 l 0.1875,-1.4375 q 0.15625,0.0156 0.26563,0.0156 1.04687,0 1.875,-0.54687 0.84375,-0.54688 0.84375,-1.67188 0,-0.90625 -0.60938,-1.5 -0.60937,-0.59375 -1.57812,-0.59375 -0.95313,0 -1.59375,0.60938 -0.64063,0.59375 -0.8125,1.79687 l -1.64063,-0.29687 q 0.29688,-1.64063 1.35938,-2.54688 1.0625,-0.90625 2.65625,-0.90625 1.09375,0 2,0.46875 0.92187,0.46875 1.40625,1.28125 0.5,0.8125 0.5,1.71875 0,0.85938 -0.46875,1.57813 -0.46875,0.70312 -1.375,1.125 1.1875,0.28125 1.84375,1.14062 0.65625,0.85938 0.65625,2.15625 0,1.73438 -1.28125,2.95313 -1.26563,1.21875 -3.21875,1.21875 -1.76563,0 -2.92188,-1.04688 -1.15625,-1.04687 -1.32812,-2.71875 z"
       id="path2025"
       inkscape:connector-curvature="0"
       style="fill:#000000;fill-rule:nonzero" />
    <path
       d="m 539.46674,593.6168 h 31.93701 v 9.85821 h -31.93701 z"
       id="path2027"
       inkscape:connector-curvature="0"
       style="fill:#01407a;fill-rule:evenodd" />
    <path
       d="m 539.46674,593.6168 h 31.93701 v 9.85821 h -31.93701 z"
       id="path2029"
       inkscape:connector-curvature="0"
       style="fill-rule:evenodd;stroke:#000000;stroke-width:1;stroke-linecap:butt;stroke-linejoin:round" />
    <path
       d="m 603.467,563.32544 h 31.93701 v 9.85828 H 603.467 Z"
       id="path2031"
       inkscape:connector-curvature="0"
       style="fill:#01407a;fill-rule:evenodd" />
    <path
       d="m 603.467,563.32544 h 31.93701 v 9.85828 H 603.467 Z"
       id="path2033"
       inkscape:connector-curvature="0"
       style="fill-rule:evenodd;stroke:#000000;stroke-width:1;stroke-linecap:butt;stroke-linejoin:round" />
    <path
       d="m 571.53,525.42255 h 31.93701 v 9.85828 H 571.53 Z"
       id="path2035"
       inkscape:connector-curvature="0"
       style="fill:#01407a;fill-rule:evenodd" />
    <path
       d="m 571.53,525.42255 h 31.93701 v 9.85828 H 571.53 Z"
       id="path2037"
       inkscape:connector-curvature="0"
       style="fill-rule:evenodd;stroke:#000000;stroke-width:1;stroke-linecap:butt;stroke-linejoin:round" />
    <path
       d="m 635.46674,593.6168 h 31.93701 v 9.85821 h -31.93701 z"
       id="path2039"
       inkscape:connector-curvature="0"
       style="fill:#01407a;fill-rule:evenodd" />
    <path
       d="m 635.46674,593.6168 h 31.93701 v 9.85821 h -31.93701 z"
       id="path2041"
       inkscape:connector-curvature="0"
       style="fill-rule:evenodd;stroke:#000000;stroke-width:1;stroke-linecap:butt;stroke-linejoin:round" />
    <path
       d="m 699.467,563.32544 h 31.93701 v 9.85828 H 699.467 Z"
       id="path2043"
       inkscape:connector-curvature="0"
       style="fill:#01407a;fill-rule:evenodd" />
    <path
       d="m 699.467,563.32544 h 31.93701 v 9.85828 H 699.467 Z"
       id="path2045"
       inkscape:connector-curvature="0"
       style="fill-rule:evenodd;stroke:#000000;stroke-width:1;stroke-linecap:butt;stroke-linejoin:round" />
    <path
       d="m 667.53,525.42255 h 31.93701 v 9.85828 H 667.53 Z"
       id="path2047"
       inkscape:connector-curvature="0"
       style="fill:#01407a;fill-rule:evenodd" />
    <path
       d="m 667.53,525.42255 h 31.93701 v 9.85828 H 667.53 Z"
       id="path2049"
       inkscape:connector-curvature="0"
       style="fill-rule:evenodd;stroke:#000000;stroke-width:1;stroke-linecap:butt;stroke-linejoin:round" />
    <path
       d="m 731.46674,593.6168 h 31.93701 v 9.85821 h -31.93701 z"
       id="path2051"
       inkscape:connector-curvature="0"
       style="fill:#01407a;fill-rule:evenodd" />
    <path
       d="m 731.46674,593.6168 h 31.93701 v 9.85821 h -31.93701 z"
       id="path2053"
       inkscape:connector-curvature="0"
       style="fill-rule:evenodd;stroke:#000000;stroke-width:1;stroke-linecap:butt;stroke-linejoin:round" />
    <path
       d="m 795.467,563.32544 h 31.93701 v 9.85828 H 795.467 Z"
       id="path2055"
       inkscape:connector-curvature="0"
       style="fill:#01407a;fill-rule:evenodd" />
    <path
       d="m 795.467,563.32544 h 31.93701 v 9.85828 H 795.467 Z"
       id="path2057"
       inkscape:connector-curvature="0"
       style="fill-rule:evenodd;stroke:#000000;stroke-width:1;stroke-linecap:butt;stroke-linejoin:round" />
    <path
       d="m 763.53,525.42255 h 31.93701 v 9.85828 H 763.53 Z"
       id="path2059"
       inkscape:connector-curvature="0"
       style="fill:#01407a;fill-rule:evenodd" />
    <path
       d="m 763.53,525.42255 h 31.93701 v 9.85828 H 763.53 Z"
       id="path2061"
       inkscape:connector-curvature="0"
       style="fill-rule:evenodd;stroke:#000000;stroke-width:1;stroke-linecap:butt;stroke-linejoin:round" />
    <path
       d="m 827.46674,593.6168 h 31.93701 v 9.85821 h -31.93701 z"
       id="path2063"
       inkscape:connector-curvature="0"
       style="fill:#01407a;fill-rule:evenodd" />
    <path
       d="m 827.46674,593.6168 h 31.93701 v 9.85821 h -31.93701 z"
       id="path2065"
       inkscape:connector-curvature="0"
       style="fill-rule:evenodd;stroke:#000000;stroke-width:1;stroke-linecap:butt;stroke-linejoin:round" />
    <path
       d="m 859.53,525.42255 h 31.93701 v 9.85828 H 859.53 Z"
       id="path2067"
       inkscape:connector-curvature="0"
       style="fill:#01407a;fill-rule:evenodd" />
    <path
       d="m 859.53,525.42255 h 31.93701 v 9.85828 H 859.53 Z"
       id="path2069"
       inkscape:connector-curvature="0"
       style="fill-rule:evenodd;stroke:#000000;stroke-width:1;stroke-linecap:butt;stroke-linejoin:round" />
  </g>
</svg>
